<?xml version="1.0" standalone="no"?>
<!DOCTYPE svg PUBLIC "-//W3C//DTD SVG 20010904//EN"
 "http://www.w3.org/TR/2001/REC-SVG-20010904/DTD/svg10.dtd">
<svg version="1.0" xmlns="http://www.w3.org/2000/svg"
 width="2732.000000pt" height="2732.000000pt" viewBox="0 0 2732.000000 2732.000000"
 preserveAspectRatio="xMidYMid meet">
<metadata>
Created by potrace 1.14, written by Peter Selinger 2001-2017
</metadata>
<g transform="translate(0.000000,2732.000000) scale(0.100000,-0.100000)"
fill="#000000" stroke="none">
<path d="M13529 23656 c-2 -2 -31 -7 -64 -11 -72 -8 -286 -62 -299 -75 -6 -6
-16 -10 -23 -10 -18 0 -184 -82 -249 -123 -224 -141 -417 -358 -531 -597 -132
-275 -171 -568 -118 -895 2 -11 12 -56 24 -100 93 -357 333 -676 656 -871 48
-30 198 -104 209 -104 2 0 17 -5 33 -12 15 -6 33 -12 38 -14 6 -1 53 -14 105
-27 142 -38 162 -40 465 -43 154 -1 312 -5 350 -8 206 -16 265 -21 390 -37
126 -15 156 -19 225 -30 104 -16 122 -19 175 -29 28 -5 64 -12 80 -15 54 -9
89 -16 135 -26 25 -6 56 -13 70 -15 193 -37 586 -150 840 -242 69 -25 141 -51
160 -58 209 -75 614 -261 855 -394 50 -27 108 -59 130 -71 134 -73 583 -362
605 -388 3 -3 25 -20 50 -36 25 -16 47 -32 50 -35 3 -3 23 -18 45 -35 46 -34
275 -217 319 -254 370 -321 686 -643 936 -956 35 -44 67 -82 70 -85 7 -7 140
-184 184 -245 118 -167 318 -476 378 -585 14 -25 40 -70 58 -100 105 -175 325
-645 430 -920 106 -275 236 -698 284 -920 3 -14 15 -70 26 -125 12 -55 23
-109 26 -120 9 -41 54 -302 59 -340 2 -22 12 -94 20 -160 8 -66 18 -145 20
-175 3 -30 7 -75 10 -100 26 -270 27 -1053 1 -1210 -3 -14 -7 -59 -10 -100 -3
-41 -8 -86 -10 -100 -4 -23 -12 -90 -21 -170 -4 -32 -29 -194 -41 -265 -25
-143 -31 -170 -46 -235 -5 -25 -12 -58 -15 -73 -10 -61 -96 -390 -138 -527
-64 -212 -176 -523 -235 -655 -4 -11 -32 -74 -61 -140 -241 -555 -604 -1152
-974 -1602 -5 -7 -14 -18 -20 -25 -191 -246 -597 -663 -890 -913 -44 -37 -91
-78 -105 -90 -155 -132 -671 -505 -699 -505 -5 0 -11 -4 -13 -8 -5 -12 -282
-177 -439 -262 -81 -44 -437 -220 -443 -220 -3 0 -33 -13 -68 -29 -35 -16 -99
-43 -143 -61 -44 -18 -93 -38 -110 -45 -16 -7 -95 -36 -175 -65 -80 -29 -154
-56 -165 -60 -38 -16 -326 -103 -415 -126 -236 -60 -514 -122 -625 -139 -55
-8 -95 -14 -125 -20 -14 -2 -45 -7 -70 -10 -25 -3 -56 -8 -70 -10 -14 -2 -52
-7 -85 -11 -33 -3 -67 -8 -76 -9 -8 -2 -55 -6 -105 -10 -49 -4 -97 -9 -107
-11 -136 -25 -1037 -25 -1198 1 -13 2 -62 6 -109 10 -47 3 -94 8 -105 10 -18
4 -90 13 -165 21 -25 2 -205 31 -250 39 -14 3 -61 12 -105 19 -179 32 -425 91
-655 157 -205 59 -598 197 -725 254 -27 13 -78 35 -113 49 -130 55 -516 240
-532 256 -3 3 -25 15 -50 28 -193 99 -671 404 -815 520 -5 4 -25 19 -44 32
-19 14 -44 32 -55 42 -12 9 -69 55 -129 102 -100 80 -143 116 -171 141 -6 6
-44 39 -85 75 -290 254 -609 589 -860 903 -47 60 -87 103 -89 98 -6 -18 -26
-13 -54 14 -15 14 -29 25 -31 25 -2 0 -41 24 -85 54 -174 117 -389 197 -601
224 -73 9 -311 9 -381 -1 -126 -17 -258 -53 -357 -98 -24 -10 -46 -19 -49 -19
-15 0 -196 -108 -264 -158 -110 -81 -249 -228 -330 -349 -127 -189 -182 -328
-236 -598 -3 -16 -7 -97 -9 -180 -3 -176 6 -263 44 -398 16 -59 17 -70 4 -82
-8 -8 -19 -15 -24 -15 -22 0 -4 -33 69 -131 43 -57 107 -147 142 -199 74 -109
96 -136 205 -246 44 -44 120 -125 170 -180 244 -269 538 -564 769 -769 44 -38
86 -77 95 -85 37 -34 213 -181 311 -260 58 -47 110 -88 115 -93 6 -4 55 -42
110 -83 55 -42 111 -84 125 -94 166 -125 643 -442 814 -540 17 -10 82 -47 145
-84 62 -36 114 -66 116 -66 1 0 53 -28 116 -63 112 -62 401 -206 529 -265 205
-93 213 -97 420 -181 91 -38 217 -87 280 -110 63 -24 149 -55 190 -70 75 -28
327 -109 470 -151 41 -13 93 -28 116 -36 46 -14 554 -141 599 -148 17 -3 39
-8 50 -10 140 -30 396 -78 430 -82 17 -1 44 -5 60 -8 49 -8 157 -25 195 -30
19 -2 89 -11 155 -20 129 -16 203 -25 275 -30 43 -4 140 -12 245 -21 303 -27
1151 -27 1420 -1 22 2 81 7 130 11 50 4 104 8 120 10 17 2 59 6 95 10 36 3 81
8 100 10 19 3 58 7 85 10 28 3 61 7 74 10 14 2 45 7 70 10 25 3 55 7 66 9 11
2 43 7 70 10 82 11 220 35 385 67 85 17 166 33 180 35 14 3 32 7 40 9 8 2 29
7 45 9 17 3 129 31 250 61 121 31 228 58 238 60 43 10 374 111 507 155 578
193 1188 461 1705 752 28 15 57 31 65 35 86 44 611 371 675 420 6 5 46 32 90
62 224 153 656 487 821 636 6 6 37 33 70 60 218 186 545 507 825 811 40 43
284 326 328 379 9 11 41 52 71 90 30 39 57 72 60 75 4 3 26 32 51 65 24 33 46
62 49 65 3 3 31 39 61 80 193 260 437 627 588 885 28 50 56 97 61 105 137 226
426 811 545 1105 20 50 45 109 56 132 10 24 19 47 19 53 0 6 5 18 10 28 21 35
110 283 191 527 110 333 222 750 295 1100 14 71 42 224 44 245 1 3 5 23 10 45
5 22 12 65 16 95 3 30 8 58 9 61 2 3 7 28 10 55 4 27 8 60 11 74 2 14 6 43 9
65 3 22 12 94 20 160 9 66 18 145 20 175 3 30 7 71 10 90 2 19 7 76 11 125 3
50 8 106 9 125 27 273 27 1083 0 1425 -2 28 -7 86 -10 130 -3 44 -8 96 -10
115 -8 68 -18 163 -29 265 -4 33 -9 74 -11 90 -3 17 -7 48 -10 70 -3 22 -10
67 -15 100 -5 33 -12 78 -15 100 -3 23 -8 52 -10 65 -3 14 -8 43 -11 65 -3 22
-9 56 -14 75 -5 19 -12 58 -16 85 -3 28 -8 53 -10 56 -2 4 -6 24 -10 44 -8 50
-8 52 -39 190 -15 66 -28 126 -30 135 -7 33 -67 269 -86 335 -11 39 -27 95
-35 125 -128 454 -322 974 -536 1440 -84 183 -290 585 -345 672 -13 21 -23 40
-23 42 0 4 -45 82 -87 151 -7 11 -16 27 -20 35 -14 30 -154 251 -240 382 -48
73 -90 138 -92 143 -2 6 -7 12 -10 15 -4 3 -38 50 -76 105 -121 175 -391 527
-501 655 -12 14 -64 74 -115 135 -52 60 -101 117 -109 125 -8 9 -62 68 -120
131 -222 241 -591 598 -784 758 -10 9 -26 23 -35 32 -18 17 -183 155 -246 206
-22 17 -69 54 -105 83 -36 28 -72 56 -80 63 -8 7 -31 23 -50 37 -19 13 -37 27
-40 30 -8 10 -393 285 -428 305 -9 6 -62 40 -117 76 -55 36 -156 101 -225 143
-69 42 -132 80 -140 86 -14 9 -101 59 -180 103 -708 400 -1493 723 -2277 937
-84 22 -160 43 -170 45 -10 2 -76 18 -148 35 -131 31 -249 58 -295 66 -14 2
-59 11 -100 19 -127 25 -233 44 -280 50 -24 4 -47 8 -50 10 -3 1 -30 6 -61 9
-31 4 -67 9 -80 11 -25 5 -216 30 -309 40 -30 4 -66 8 -80 10 -14 2 -61 6
-105 10 -44 3 -98 8 -120 10 -49 5 -187 15 -275 21 -93 6 -686 14 -691 10z"/>
</g>
</svg>
